# xmcd
#
# Track frame offsets: 
#        150
#        22072
#        36077
#        52002
#        66487
#        84942
#        98870
#        114647
#        128727
#        146452
#        169930
#
# Disc length: 2518 seconds
#
# Revision: 1
# Processed by: cddbd v1.5.2PL0 Copyright (c) Steve Scherf et al.
# Submitted via: ExactAudioCopy v0.99pb4
#
DISCID=9909d40b
DTITLE=Pharaoh's Daughter - Out of the Reeds
DYEAR=2000
DGENRE=World, Jewish
TTITLE0=Hevel
TTITLE1=Afilu
TTITLE2=Im Ein Ani Li Mili
TTITLE3=Taitch
TTITLE4=Eicha
TTITLE5=West African Niggun
TTITLE6=Lechi Dodi
TTITLE7=Hamavdil
TTITLE8=Koomi Lach
TTITLE9=Shmirele Perele
TTITLE10=Ija Mia
EXTD=YEAR: 2002 ID3G: 64
EXTT0=
EXTT1=
EXTT2=
EXTT3=
EXTT4=
EXTT5=
EXTT6=
EXTT7=
EXTT8=
EXTT9=
EXTT10=
PLAYORDER=
